<svg aria-hidden="true" style="position: absolute; width: 0; height: 0; overflow: hidden;" version="1.1" xmlns="http://www.w3.org/2000/svg" xmlns:xlink="http://www.w3.org/1999/xlink">
<defs>
<symbol id="icon-bubbles2" viewBox="0 0 32 32">
<path fill="#61a568" style="fill: var(--color1, #61a568)" d="M13.333 0c7.364 0 13.333 5.435 13.333 12.139s-5.97 12.139-13.333 12.139c-0.708 0-1.401-0.051-2.079-0.147-2.864 3.209-6.172 3.785-9.476 3.869v-0.785c1.785-0.98 3.222-2.765 3.222-4.804 0-0.285-0.020-0.564-0.056-0.837-3.015-2.225-4.944-5.625-4.944-9.434 0-6.704 5.97-12.139 13.333-12.139v-0.001zM27.667 27.209c0 1.748 1.009 3.278 2.556 4.118v0.673c-2.865-0.072-5.494-0.566-7.976-3.316-0.588 0.083-1.188 0.126-1.802 0.126-2.652 0-5.095-0.805-7.044-2.157 4.019-0.016 7.812-1.464 10.69-4.084 1.45-1.32 2.595-2.87 3.4-4.605 0.854-1.84 1.288-3.799 1.288-5.825 0-0.326-0.012-0.651-0.035-0.974 2.016 1.873 3.257 4.426 3.257 7.24 0 3.265-1.671 6.179-4.284 8.086-0.032 0.234-0.049 0.474-0.049 0.718z"></path>
</symbol>
<symbol id="icon-earth" viewBox="0 0 32 32">
<path fill="#61a568" style="fill: var(--color1, #61a568)" d="M16 0c-8.837 0-16 7.163-16 16s7.163 16 16 16c8.837 0 16-7.163 16-16s-7.163-16-16-16zM16 30c-1.967 0-3.84-0.407-5.538-1.139l7.286-8.197c0.163-0.183 0.253-0.419 0.253-0.664v-3c0-0.552-0.448-1-1-1-3.531 0-7.256-3.671-7.293-3.707-0.188-0.188-0.442-0.293-0.707-0.293h-4c-0.552 0-1 0.448-1 1v6c0 0.379 0.214 0.725 0.553 0.894l3.447 1.724v5.871c-3.627-2.53-6-6.732-6-11.489 0-2.147 0.484-4.181 1.348-6h3.652c0.265 0 0.52-0.105 0.707-0.293l4-4c0.188-0.188 0.293-0.442 0.293-0.707v-2.419c1.268-0.377 2.61-0.581 4-0.581 2.2 0 4.281 0.508 6.134 1.412-0.13 0.109-0.256 0.224-0.376 0.345-1.133 1.133-1.757 2.64-1.757 4.243s0.624 3.109 1.757 4.243c1.139 1.139 2.663 1.758 4.239 1.758 0.099 0 0.198-0.002 0.297-0.007 0.432 1.619 1.211 5.833-0.263 11.635-0.014 0.055-0.022 0.109-0.026 0.163-2.541 2.596-6.084 4.208-10.004 4.208h-0.002z"></path>
</symbol>
<symbol id="icon-steam2" viewBox="0 0 32 32">
<path fill="#61a568" style="fill: var(--color1, #61a568)" d="M9.498 26.125c0.848 0 1.681-0.41 2.187-1.169 0.804-1.206 0.478-2.836-0.728-3.64l-2.065-1.377c0.353-0.096 0.725-0.149 1.109-0.149 2.325 0 4.209 1.884 4.209 4.209s-1.885 4.209-4.209 4.209c-2.263 0-4.108-1.785-4.205-4.024l2.249 1.499c0.448 0.298 0.953 0.441 1.454 0.441l-0.001 0.001zM26.667 0c2.934 0 5.333 2.4 5.333 5.334v21.332c0 2.936-2.399 5.334-5.333 5.334h-21.333c-2.934 0-5.334-2.398-5.334-5.334v-6.345l3.792 2.528c-0.364 1.974 0.217 4.088 1.744 5.615 2.466 2.466 6.463 2.466 8.929 0 1.515-1.515 2.098-3.607 1.752-5.568l7.783-6.968c1.445-0.207 2.838-0.867 3.95-1.979 2.734-2.734 2.734-7.166 0-9.899s-7.166-2.734-9.9 0c-1.112 1.112-1.771 2.505-1.979 3.95l-6.397 9.695c-0.995 0.051-1.981 0.336-2.866 0.856l-6.808-4.539v-8.678c0-2.934 2.4-5.334 5.334-5.334h21.333zM28 9c0-2.761-2.239-5-5-5s-5 2.239-5 5c0 2.761 2.239 5 5 5s5-2.239 5-5zM20 9c0-1.657 1.343-3 3-3s3 1.343 3 3c0 1.657-1.343 3-3 3s-3-1.343-3-3z"></path>
</symbol>
<symbol id="icon-basket" viewBox="0 0 32 32">
<path fill="#61a568" style="fill: var(--color1, #61a568)" d="M32 20.364v-17.455h-24c0-1.607-0.895-2.909-2-2.909h-6v2.909h4l1.502 18.73c-0.915 1.066-1.502 2.704-1.502 4.543 0 3.213 1.791 5.818 4 5.818h24v-2.909h-24c-1.105 0-2-1.302-2-2.909 0-0.010 0-0.020 0-0.029l26-5.789z"></path>
</symbol>
<symbol id="icon-earloop" viewBox="0 0 31 32">
<path fill="#61a568" style="fill: var(--color1, #61a568)" d="M31.304 16.203c0-8.569-7.007-15.515-15.652-15.515s-15.652 6.946-15.652 15.515c0 1.861 0.331 3.645 0.937 5.298-0.596 1.006-0.937 2.178-0.937 3.429 0 3.419 2.551 6.248 5.87 6.719v-13.437c-0.975 0.139-1.885 0.48-2.682 0.981-0.164-0.81-0.252-1.647-0.252-2.506 0-6.962 5.693-12.606 12.717-12.606s12.717 5.643 12.717 12.606c0 0.858-0.086 1.696-0.251 2.506-0.798-0.501-1.707-0.844-2.683-0.982v13.438c3.318-0.47 5.87-3.299 5.87-6.719 0-1.251-0.341-2.422-0.937-3.429 0.607-1.653 0.937-3.438 0.937-5.299v0.001z"></path>
</symbol>
<symbol id="icon-champion" viewBox="0 0 31 32">
<path fill="#61a568" style="fill: var(--color1, #61a568)" d="M25.435 5.103v-4.423h-19.565v4.423h-5.87v4.423c0 3.664 2.628 6.634 5.87 6.634 0.613 0 1.205-0.106 1.762-0.304 1.412 2.281 3.565 3.932 6.064 4.506v6.855h-1.957c-2.161 0-3.913 1.98-3.913 4.423h15.652c0-2.442-1.752-4.423-3.913-4.423h-1.957v-6.855c2.499-0.574 4.653-2.225 6.064-4.506 0.556 0.198 1.148 0.304 1.762 0.304 3.242 0 5.87-2.97 5.87-6.634v-4.423h-5.87zM5.87 13.534c-1.956 0-3.546-1.798-3.546-4.008v-2.211h3.546v2.211c0 1.389 0.227 2.717 0.641 3.942-0.208 0.043-0.422 0.066-0.641 0.066zM28.981 9.526c0 2.21-1.591 4.008-3.546 4.008-0.219 0-0.432-0.023-0.641-0.066 0.414-1.224 0.641-2.553 0.641-3.942v-2.211h3.546v2.211z"></path>
</symbol>

<symbol id="icon-display-1" viewBox="0 0 32 32">
<path fill="#f5f5f5" style="fill: var(--color1, #f5f5f5)" d="M0 2v20h32v-20h-32zM30 20h-28v-16h28v16zM21 24h-10l-1 4-2 2h16l-2-2-1-4z"></path>
</symbol>
<symbol id="icon-location-1" viewBox="0 0 32 32">
<path fill="#f5f5f5" style="fill: var(--color1, #f5f5f5)" d="M16 0c-5.523 0-10 4.477-10 10 0 10 10 22 10 22s10-12 10-22c0-5.523-4.477-10-10-10zM16 16c-3.314 0-6-2.686-6-6s2.686-6 6-6c3.314 0 6 2.686 6 6s-2.686 6-6 6z"></path>
</symbol>
<symbol id="icon-users-1" viewBox="0 0 34 32">
<path fill="#f5f5f5" style="fill: var(--color1, #f5f5f5)" d="M21.513 24.082v-1.649c1.975-1.241 3.585-4.337 3.585-7.432 0-4.971 0-9-5.378-9s-5.378 4.029-5.378 9c0 3.096 1.611 6.191 3.585 7.432v1.649c-6.081 0.555-10.756 3.888-10.756 7.918h25.098c0-4.030-4.676-7.364-10.756-7.918z"></path>
<path fill="#f5f5f5" style="fill: var(--color1, #f5f5f5)" d="M9.165 24.854c1.549-1.13 3.475-1.989 5.596-2.513-0.421-0.556-0.804-1.176-1.134-1.844-0.852-1.726-1.302-3.627-1.302-5.497 0-2.689 0-5.228 0.857-7.305 0.832-2.016 2.329-3.265 4.46-3.734-0.474-2.39-1.735-3.961-5.093-3.961-5.378 0-5.378 4.029-5.378 9 0 3.096 1.611 6.191 3.585 7.432v1.649c-6.081 0.555-10.756 3.888-10.756 7.918h7.815c0.407-0.403 0.857-0.787 1.35-1.146v0.001z"></path>
</symbol>
<symbol id="icon-Vector" viewBox="0 0 43 32">
<path fill="#f5f5f5" style="fill: var(--color1, #f5f5f5)" d="M38.667 0h-34.667c-2.2 0-4 1.8-4 4v24c0 2.2 1.8 4 4 4h34.667c2.2 0 4-1.8 4-4v-24c0-2.2-1.8-4-4-4zM4 2.667h34.667c0.723 0 1.333 0.611 1.333 1.333v4h-37.333v-4c0-0.723 0.611-1.333 1.333-1.333zM38.667 29.333h-34.667c-0.723 0-1.333-0.611-1.333-1.333v-12h37.333v12c0 0.723-0.611 1.333-1.333 1.333zM5.333 21.333h2.667v5.333h-2.667v-5.333zM10.667 21.333h2.667v5.333h-2.667v-5.333zM16 21.333h2.667v5.333h-2.667v-5.333z"></path>
</symbol>

<symbol id="icon-logo" viewBox="0 0 94 32">
<path fill="#61a568" style="fill: var(--color1, #61a568)" d="M35.526 10.468c-0.145-0.149-0.335-0.241-0.538-0.261s-0.406 0.033-0.576 0.151c-0.169 0.118-0.294 0.292-0.353 0.494s-0.048 0.419 0.030 0.613 0.219 0.355 0.399 0.455c0.18 0.099 0.387 0.131 0.587 0.090s0.38-0.152 0.51-0.315 0.2-0.367 0.201-0.578c0-0.121-0.023-0.24-0.068-0.352s-0.11-0.213-0.193-0.298z"></path>
<path fill="#61a568" style="fill: var(--color1, #61a568)" d="M39.299 7.861c0.123-0.128 0.207-0.291 0.241-0.468s0.016-0.361-0.050-0.528c-0.067-0.167-0.18-0.31-0.325-0.41s-0.316-0.155-0.49-0.155c-0.176-0.003-0.35 0.048-0.498 0.147s-0.264 0.242-0.333 0.409c-0.069 0.168-0.088 0.353-0.055 0.532s0.118 0.344 0.242 0.473c0.082 0.088 0.181 0.158 0.29 0.206s0.226 0.072 0.344 0.072c0.118 0 0.235-0.025 0.344-0.072s0.208-0.118 0.29-0.206z"></path>
<path fill="#61a568" style="fill: var(--color1, #61a568)" d="M39.254 14.317c-0.083-0.086-0.181-0.154-0.289-0.2s-0.224-0.070-0.341-0.070c-0.117 0-0.233 0.024-0.341 0.070s-0.206 0.114-0.289 0.2c-0.124 0.128-0.208 0.291-0.242 0.469s-0.017 0.362 0.050 0.529c0.067 0.167 0.181 0.31 0.326 0.411s0.317 0.154 0.492 0.154c0.175 0 0.346-0.054 0.492-0.154s0.259-0.243 0.326-0.411c0.067-0.167 0.085-0.351 0.050-0.529s-0.118-0.341-0.242-0.469h0.006z"></path>
<path fill="#61a568" style="fill: var(--color1, #61a568)" d="M47.702 6.965c-0.496-1.839-1.516-3.48-2.927-4.711-3.081-2.69-7.106-2.804-11.751-1.229-0.89 0.298-1.82 0.447-2.756 0.443h-11.091c-0.934 0.004-1.864-0.146-2.753-0.443-4.646-1.575-8.67-1.462-11.751 1.229-1.411 1.232-2.431 2.873-2.93 4.711-2.382 8.79-2.415 16.342 0.473 22.369 1.314 2.727 3.348 3.23 5.905 2.108 0.745-0.332 1.446-0.761 2.086-1.275 1.846-1.463 3.388-3.295 4.536-5.387 0.2-0.37 0.393-0.746 0.554-1.139 1.288-2.833 3.245-4.462 6.23-4.145l3.197 0.067 3.194-0.067c2.994-0.303 4.926 1.325 6.233 4.145 0.174 0.38 0.354 0.756 0.554 1.125 1.146 2.097 2.688 3.934 4.536 5.401 0.641 0.514 1.342 0.943 2.086 1.275 2.556 1.122 4.591 0.619 5.905-2.108 2.888-6.027 2.846-13.578 0.47-22.369zM10.993 17.314c-1.19 0.001-2.353-0.364-3.342-1.047s-1.761-1.654-2.216-2.791c-0.456-1.136-0.575-2.387-0.344-3.594s0.804-2.315 1.645-3.185c0.841-0.87 1.913-1.463 3.079-1.703s2.376-0.117 3.475 0.353c1.099 0.471 2.039 1.268 2.7 2.291s1.014 2.226 1.014 3.456c-0.001 1.649-0.634 3.23-1.761 4.396s-2.655 1.822-4.25 1.824zM23.488 17.287h-2.798v-1.282h2.798v1.282zM28.759 17.287h-2.798v-1.282h2.798v1.282zM37.001 5.487c0.444-0.459 1.046-0.716 1.674-0.716s1.23 0.258 1.674 0.716c0.331 0.342 0.556 0.778 0.647 1.253s0.044 0.967-0.135 1.414c-0.179 0.447-0.483 0.829-0.872 1.098s-0.847 0.412-1.315 0.412c-0.468 0-0.925-0.143-1.314-0.412s-0.692-0.651-0.872-1.098-0.226-0.939-0.135-1.414c0.091-0.475 0.316-0.911 0.647-1.253zM33.227 12.849c-0.444-0.459-0.693-1.082-0.693-1.731s0.249-1.272 0.693-1.731c0.444-0.459 1.046-0.717 1.674-0.717s1.23 0.258 1.674 0.717c0.22 0.227 0.394 0.497 0.513 0.794s0.18 0.616 0.18 0.937c0 0.322-0.061 0.64-0.18 0.937s-0.293 0.567-0.513 0.794-0.481 0.408-0.768 0.531c-0.287 0.123-0.595 0.186-0.906 0.186-0.628 0-1.23-0.258-1.674-0.717zM40.31 16.704c-0.388 0.403-0.899 0.655-1.447 0.711s-1.097-0.085-1.554-0.4c-0.458-0.315-0.796-0.785-0.956-1.329s-0.133-1.129 0.077-1.655c0.21-0.526 0.59-0.96 1.075-1.228s1.045-0.354 1.584-0.243c0.539 0.111 1.025 0.412 1.374 0.852s0.539 0.991 0.539 1.56c0 0.322-0.062 0.641-0.182 0.938s-0.296 0.567-0.517 0.793h0.006zM44.084 12.802c-0.331 0.343-0.754 0.576-1.213 0.671s-0.936 0.046-1.369-0.14c-0.433-0.186-0.803-0.5-1.063-0.903s-0.399-0.877-0.399-1.361c0-0.485 0.139-0.958 0.399-1.361s0.63-0.717 1.063-0.903c0.433-0.185 0.909-0.234 1.369-0.14s0.882 0.328 1.213 0.671c0.443 0.461 0.691 1.085 0.69 1.734s-0.252 1.273-0.696 1.732h0.006z"></path>
<path fill="#61a568" style="fill: var(--color1, #61a568)" d="M10.993 6.409c-0.896 0-1.772 0.275-2.517 0.79s-1.326 1.246-1.668 2.102c-0.343 0.856-0.433 1.798-0.258 2.707s0.606 1.744 1.24 2.399c0.634 0.655 1.441 1.101 2.319 1.282s1.79 0.088 2.617-0.267c0.828-0.355 1.535-0.955 2.033-1.726s0.763-1.676 0.763-2.603c-0.001-1.242-0.478-2.433-1.328-3.312s-2.001-1.372-3.202-1.373zM14.815 11.127c0 0.203-0.078 0.398-0.217 0.541s-0.327 0.224-0.524 0.224h-2.35v2.424c-0.012 0.195-0.096 0.377-0.234 0.511s-0.32 0.208-0.508 0.208-0.37-0.074-0.508-0.208c-0.138-0.133-0.221-0.316-0.234-0.511v-2.431h-2.337c-0.196 0-0.385-0.081-0.524-0.224s-0.217-0.338-0.217-0.541c0-0.203 0.078-0.398 0.217-0.541s0.327-0.224 0.524-0.224h2.347v-2.431c-0.007-0.105 0.008-0.21 0.042-0.309s0.088-0.19 0.157-0.267c0.070-0.077 0.154-0.138 0.247-0.18s0.194-0.064 0.296-0.064 0.202 0.022 0.296 0.064c0.093 0.042 0.177 0.103 0.247 0.18s0.123 0.168 0.157 0.267c0.034 0.099 0.048 0.205 0.042 0.309v2.431h2.35c0.196 0.003 0.383 0.085 0.52 0.23s0.213 0.34 0.211 0.542z"></path>
<path fill="#61a568" style="fill: var(--color1, #61a568)" d="M42.403 10.155c-0.205 0-0.404 0.074-0.562 0.208s-0.267 0.322-0.306 0.53c-0.040 0.208-0.009 0.424 0.088 0.61s0.253 0.333 0.443 0.414c0.189 0.081 0.4 0.091 0.596 0.029s0.365-0.192 0.479-0.369c0.113-0.176 0.164-0.388 0.144-0.599s-0.111-0.408-0.257-0.557c-0.166-0.17-0.391-0.266-0.625-0.266z"></path>
<path fill="#61a568" style="fill: var(--color1, #61a568)" d="M58.362 10.761c-0.298 0.141-0.609 0.252-0.927 0.333-0.301 0.079-0.61 0.121-0.921 0.127-0.688 0.015-1.369-0.142-1.986-0.456-0.546-0.281-1.003-0.718-1.317-1.259-0.314-0.555-0.475-1.188-0.464-1.831-0.023-0.76 0.147-1.513 0.493-2.184 0.305-0.569 0.765-1.032 1.323-1.332 0.568-0.299 1.198-0.451 1.835-0.443 0.41-0.003 0.819 0.048 1.217 0.15 0.349 0.088 0.686 0.219 1.005 0.39l-0.454 1.332c-0.244-0.13-0.503-0.229-0.769-0.296-0.265-0.080-0.539-0.125-0.815-0.133-0.644-0.046-1.28 0.169-1.774 0.599-0.216 0.236-0.382 0.516-0.488 0.822s-0.148 0.632-0.124 0.956c-0.010 0.415 0.094 0.825 0.299 1.182 0.199 0.337 0.489 0.607 0.834 0.776 0.383 0.185 0.801 0.278 1.223 0.27 0.332 0.020 0.664-0.045 0.966-0.19v-0.892h-1.227v-1.398h2.646v3.107c-0.169 0.159-0.364 0.285-0.576 0.373z"></path>
<path fill="#61a568" style="fill: var(--color1, #61a568)" d="M64.074 9.689h-2.357l-0.58 1.438h-1.381l3.219-7.658h0.077l3.22 7.658h-1.61l-0.589-1.438zM63.61 8.47l-0.686-1.788-0.715 1.788h1.401z"></path>
<path fill="#61a568" style="fill: var(--color1, #61a568)" d="M74.586 3.476v7.658h-1.4v-3.513l-2.318 3.406h-0.032l-2.231-3.187v3.286h-1.352v-7.658l3.603 5.284 3.69-5.284 0.042 0.007z"></path>
<path fill="#61a568" style="fill: var(--color1, #61a568)" d="M77.822 3.776v7.352h-1.4v-7.352h1.4z"></path>
<path fill="#61a568" style="fill: var(--color1, #61a568)" d="M86.061 3.775v7.658h-0.039l-4.974-4.651 0.029 4.345h-1.42v-7.658h0.058l4.965 4.731-0.029-4.425h1.41z"></path>
<path fill="#61a568" style="fill: var(--color1, #61a568)" d="M93.076 10.761c-0.298 0.141-0.609 0.252-0.927 0.333-0.3 0.079-0.61 0.121-0.92 0.127-0.688 0.015-1.37-0.142-1.987-0.456-0.546-0.281-1.003-0.718-1.317-1.259-0.314-0.555-0.475-1.188-0.464-1.831-0.023-0.76 0.147-1.513 0.493-2.184 0.305-0.569 0.766-1.032 1.324-1.332 0.568-0.307 1.2-0.466 1.841-0.463 0.411-0.003 0.82 0.048 1.218 0.15 0.348 0.088 0.686 0.219 1.004 0.39l-0.454 1.332c-0.244-0.13-0.503-0.229-0.77-0.296-0.265-0.080-0.539-0.125-0.815-0.133-0.644-0.046-1.28 0.169-1.773 0.599-0.216 0.236-0.382 0.516-0.488 0.822s-0.147 0.632-0.124 0.956c-0.009 0.415 0.094 0.825 0.299 1.182 0.2 0.337 0.489 0.607 0.834 0.776 0.382 0.185 0.801 0.278 1.223 0.27 0.332 0.020 0.664-0.045 0.966-0.19v-0.872h-1.227v-1.398h2.647v3.106c-0.171 0.16-0.368 0.286-0.583 0.373z"></path>
<path fill="#61a568" style="fill: var(--color1, #61a568)" d="M57.654 22.974c-0.412 0.157-0.849 0.235-1.288 0.23-0.676 0.017-1.343-0.156-1.932-0.499-0.531-0.314-0.966-0.775-1.256-1.332-0.292-0.57-0.441-1.206-0.435-1.851-0.012-0.686 0.137-1.365 0.435-1.978 0.276-0.573 0.705-1.051 1.236-1.378 0.548-0.33 1.173-0.497 1.806-0.483 0.406-0.004 0.81 0.057 1.198 0.18 0.339 0.107 0.664 0.258 0.966 0.449l-0.551 1.369c-0.443-0.374-0.993-0.585-1.565-0.599-0.36-0-0.712 0.107-1.014 0.31-0.318 0.208-0.577 0.499-0.753 0.842-0.189 0.364-0.285 0.772-0.28 1.185-0.009 0.429 0.080 0.855 0.261 1.242 0.165 0.347 0.423 0.637 0.744 0.836 0.343 0.206 0.734 0.309 1.13 0.3 0.32 0.005 0.639-0.055 0.937-0.176 0.237-0.095 0.456-0.235 0.644-0.413l0.58 1.299c-0.262 0.202-0.553 0.36-0.863 0.47z"></path>
<path fill="#61a568" style="fill: var(--color1, #61a568)" d="M61.315 15.762v5.953h3.342v1.398h-4.742v-7.352h1.401z"></path>
<path fill="#61a568" style="fill: var(--color1, #61a568)" d="M67.564 21.066c0.138 0.215 0.323 0.393 0.541 0.519 0.22 0.132 0.47 0.201 0.724 0.2 0.267 0.003 0.53-0.066 0.763-0.2 0.221-0.123 0.408-0.302 0.544-0.519 0.127-0.197 0.197-0.429 0.2-0.666v-4.638h1.381v4.661c0.006 0.503-0.128 0.996-0.386 1.422-0.256 0.425-0.618 0.771-1.050 0.999-0.449 0.234-0.946 0.356-1.449 0.356s-0.999-0.122-1.449-0.356c-0.428-0.228-0.788-0.574-1.040-0.999-0.255-0.427-0.387-0.92-0.38-1.422v-4.661h1.4v4.635c0.001 0.239 0.070 0.472 0.2 0.669z"></path>
<path fill="#61a568" style="fill: var(--color1, #61a568)" d="M77.941 19.941c0.21 0.287 0.324 0.638 0.322 0.999 0.023 0.313-0.029 0.628-0.154 0.915s-0.316 0.537-0.558 0.727c-0.521 0.365-1.142 0.549-1.771 0.526h-2.37v-7.345h2.086c0.625-0.036 1.246 0.129 1.777 0.473 0.211 0.154 0.381 0.361 0.493 0.602s0.164 0.506 0.151 0.773c0.007 0.335-0.069 0.667-0.222 0.962-0.147 0.276-0.364 0.506-0.628 0.666 0.343 0.156 0.643 0.397 0.873 0.703zM74.808 18.769h0.856c0.111 0.007 0.222-0.012 0.326-0.055s0.197-0.108 0.273-0.192c0.143-0.165 0.219-0.381 0.212-0.603 0.007-0.107-0.011-0.215-0.053-0.314s-0.107-0.185-0.188-0.252c-0.195-0.14-0.43-0.208-0.666-0.193h-0.753l-0.006 1.608zM76.501 21.559c0.102-0.063 0.186-0.153 0.242-0.261s0.084-0.229 0.080-0.352c0-0.519-0.399-0.779-1.198-0.779h-0.802v1.598h0.898c0.273 0.010 0.544-0.062 0.779-0.206z"></path>
</symbol>
</defs>
</svg>
